<svg width="16" height="16" viewBox="0 0 16 16" fill="none" xmlns="http://www.w3.org/2000/svg">
<path d="M7.99998 5.99998C7.86813 5.99998 7.73923 6.03908 7.6296 6.11233C7.51997 6.18559 7.43452 6.28971 7.38406 6.41152C7.3336 6.53334 7.3204 6.66739 7.34612 6.79671C7.37185 6.92603 7.43534 7.04482 7.52858 7.13805C7.62181 7.23129 7.7406 7.29478 7.86992 7.3205C7.99924 7.34623 8.13329 7.33302 8.2551 7.28257C8.37692 7.23211 8.48104 7.14666 8.55429 7.03703C8.62755 6.92739 8.66665 6.7985 8.66665 6.66665C8.66665 6.48984 8.59641 6.32027 8.47138 6.19524C8.34636 6.07022 8.17679 5.99998 7.99998 5.99998ZM12.6666 1.33331H3.33331C2.80288 1.33331 2.29417 1.54403 1.9191 1.9191C1.54403 2.29417 1.33331 2.80288 1.33331 3.33331V9.99998C1.33331 10.5304 1.54403 11.0391 1.9191 11.4142C2.29417 11.7893 2.80288 12 3.33331 12H11.06L13.5266 14.4733C13.5889 14.5351 13.6628 14.584 13.744 14.6172C13.8253 14.6503 13.9122 14.6672 14 14.6666C14.0874 14.6689 14.1742 14.6506 14.2533 14.6133C14.3751 14.5633 14.4793 14.4784 14.5528 14.3692C14.6264 14.2601 14.666 14.1316 14.6666 14V3.33331C14.6666 2.80288 14.4559 2.29417 14.0809 1.9191C13.7058 1.54403 13.1971 1.33331 12.6666 1.33331ZM13.3333 12.3933L11.8066 10.86C11.7444 10.7982 11.6705 10.7493 11.5893 10.7161C11.508 10.683 11.4211 10.6661 11.3333 10.6666H3.33331C3.1565 10.6666 2.98693 10.5964 2.86191 10.4714C2.73688 10.3464 2.66665 10.1768 2.66665 9.99998V3.33331C2.66665 3.1565 2.73688 2.98693 2.86191 2.86191C2.98693 2.73688 3.1565 2.66665 3.33331 2.66665H12.6666C12.8435 2.66665 13.013 2.73688 13.1381 2.86191C13.2631 2.98693 13.3333 3.1565 13.3333 3.33331V12.3933ZM5.33331 5.99998C5.20146 5.99998 5.07257 6.03908 4.96293 6.11233C4.8533 6.18559 4.76785 6.28971 4.71739 6.41152C4.66693 6.53334 4.65373 6.66739 4.67946 6.79671C4.70518 6.92603 4.76867 7.04482 4.86191 7.13805C4.95514 7.23129 5.07393 7.29478 5.20325 7.3205C5.33257 7.34623 5.46662 7.33302 5.58844 7.28257C5.71025 7.23211 5.81437 7.14666 5.88763 7.03703C5.96088 6.92739 5.99998 6.7985 5.99998 6.66665C5.99998 6.48984 5.92974 6.32027 5.80472 6.19524C5.67969 6.07022 5.51012 5.99998 5.33331 5.99998ZM10.6666 5.99998C10.5348 5.99998 10.4059 6.03908 10.2963 6.11233C10.1866 6.18559 10.1012 6.28971 10.0507 6.41152C10.0003 6.53334 9.98707 6.66739 10.0128 6.79671C10.0385 6.92603 10.102 7.04482 10.1952 7.13805C10.2885 7.23129 10.4073 7.29478 10.5366 7.3205C10.6659 7.34623 10.8 7.33302 10.9218 7.28257C11.0436 7.23211 11.1477 7.14666 11.221 7.03703C11.2942 6.92739 11.3333 6.7985 11.3333 6.66665C11.3333 6.48984 11.2631 6.32027 11.1381 6.19524C11.013 6.07022 10.8435 5.99998 10.6666 5.99998Z" fill="#EA8D51"/>
</svg>
