<svg width="17" height="16" viewBox="0 0 17 16" fill="none" xmlns="http://www.w3.org/2000/svg">
<path d="M8.49998 5.99998C8.36813 5.99998 8.23923 6.03908 8.1296 6.11233C8.01997 6.18559 7.93452 6.28971 7.88406 6.41152C7.8336 6.53334 7.8204 6.66739 7.84612 6.79671C7.87185 6.92603 7.93534 7.04482 8.02858 7.13805C8.12181 7.23129 8.2406 7.29478 8.36992 7.3205C8.49924 7.34623 8.63329 7.33302 8.7551 7.28257C8.87692 7.23211 8.98104 7.14666 9.05429 7.03703C9.12755 6.92739 9.16665 6.7985 9.16665 6.66665C9.16665 6.48984 9.09641 6.32027 8.97138 6.19524C8.84636 6.07022 8.67679 5.99998 8.49998 5.99998ZM13.1666 1.33331H3.83331C3.30288 1.33331 2.79417 1.54403 2.4191 1.9191C2.04403 2.29417 1.83331 2.80288 1.83331 3.33331V9.99998C1.83331 10.5304 2.04403 11.0391 2.4191 11.4142C2.79417 11.7893 3.30288 12 3.83331 12H11.56L14.0266 14.4733C14.0889 14.5351 14.1628 14.584 14.244 14.6172C14.3253 14.6503 14.4122 14.6672 14.5 14.6666C14.5874 14.6689 14.6742 14.6506 14.7533 14.6133C14.8751 14.5633 14.9793 14.4784 15.0528 14.3692C15.1264 14.2601 15.166 14.1316 15.1666 14V3.33331C15.1666 2.80288 14.9559 2.29417 14.5809 1.9191C14.2058 1.54403 13.6971 1.33331 13.1666 1.33331ZM13.8333 12.3933L12.3066 10.86C12.2444 10.7982 12.1705 10.7493 12.0893 10.7161C12.008 10.683 11.9211 10.6661 11.8333 10.6666H3.83331C3.6565 10.6666 3.48693 10.5964 3.36191 10.4714C3.23688 10.3464 3.16665 10.1768 3.16665 9.99998V3.33331C3.16665 3.1565 3.23688 2.98693 3.36191 2.86191C3.48693 2.73688 3.6565 2.66665 3.83331 2.66665H13.1666C13.3435 2.66665 13.513 2.73688 13.6381 2.86191C13.7631 2.98693 13.8333 3.1565 13.8333 3.33331V12.3933ZM5.83331 5.99998C5.70146 5.99998 5.57257 6.03908 5.46293 6.11233C5.3533 6.18559 5.26785 6.28971 5.21739 6.41152C5.16693 6.53334 5.15373 6.66739 5.17946 6.79671C5.20518 6.92603 5.26867 7.04482 5.36191 7.13805C5.45514 7.23129 5.57393 7.29478 5.70325 7.3205C5.83257 7.34623 5.96662 7.33302 6.08844 7.28257C6.21025 7.23211 6.31437 7.14666 6.38763 7.03703C6.46088 6.92739 6.49998 6.7985 6.49998 6.66665C6.49998 6.48984 6.42974 6.32027 6.30472 6.19524C6.17969 6.07022 6.01012 5.99998 5.83331 5.99998ZM11.1666 5.99998C11.0348 5.99998 10.9059 6.03908 10.7963 6.11233C10.6866 6.18559 10.6012 6.28971 10.5507 6.41152C10.5003 6.53334 10.4871 6.66739 10.5128 6.79671C10.5385 6.92603 10.602 7.04482 10.6952 7.13805C10.7885 7.23129 10.9073 7.29478 11.0366 7.3205C11.1659 7.34623 11.3 7.33302 11.4218 7.28257C11.5436 7.23211 11.6477 7.14666 11.721 7.03703C11.7942 6.92739 11.8333 6.7985 11.8333 6.66665C11.8333 6.48984 11.7631 6.32027 11.6381 6.19524C11.513 6.07022 11.3435 5.99998 11.1666 5.99998Z" fill="#9999BC"/>
</svg>
